<mxfile host="app.diagrams.net" modified="2020-12-05T21:54:54.990Z" agent="5.0 (Windows NT 10.0; Win64; x64) AppleWebKit/537.36 (KHTML, like Gecko) Chrome/86.0.4240.198 Safari/537.36" etag="yZngccorCrnTpNLfaoBW" version="13.10.9" type="github">
  <diagram id="NTQrETNLljIQ89Cozkd2" name="Resize">
    <mxGraphModel dx="868" dy="450" grid="1" gridSize="10" guides="1" tooltips="1" connect="1" arrows="1" fold="1" page="1" pageScale="1" pageWidth="827" pageHeight="1169" math="0" shadow="0">
      <root>
        <mxCell id="0" />
        <mxCell id="1" parent="0" />
        <mxCell id="EAH1kygpYYYkL1rse9wj-3" value="" style="edgeStyle=orthogonalEdgeStyle;rounded=0;orthogonalLoop=1;jettySize=auto;html=1;" edge="1" parent="1" source="EAH1kygpYYYkL1rse9wj-1" target="EAH1kygpYYYkL1rse9wj-2">
          <mxGeometry relative="1" as="geometry" />
        </mxCell>
        <mxCell id="EAH1kygpYYYkL1rse9wj-1" value="mousedown" style="rounded=0;whiteSpace=wrap;html=1;" vertex="1" parent="1">
          <mxGeometry x="90" y="40" width="120" height="60" as="geometry" />
        </mxCell>
        <mxCell id="EAH1kygpYYYkL1rse9wj-5" value="" style="edgeStyle=orthogonalEdgeStyle;rounded=0;orthogonalLoop=1;jettySize=auto;html=1;" edge="1" parent="1" source="EAH1kygpYYYkL1rse9wj-2" target="EAH1kygpYYYkL1rse9wj-4">
          <mxGeometry relative="1" as="geometry" />
        </mxCell>
        <mxCell id="EAH1kygpYYYkL1rse9wj-2" value="mousemove" style="rounded=0;whiteSpace=wrap;html=1;" vertex="1" parent="1">
          <mxGeometry x="270" y="40" width="120" height="60" as="geometry" />
        </mxCell>
        <mxCell id="EAH1kygpYYYkL1rse9wj-4" value="mouseup" style="rounded=0;whiteSpace=wrap;html=1;" vertex="1" parent="1">
          <mxGeometry x="460" y="40" width="120" height="60" as="geometry" />
        </mxCell>
        <mxCell id="EAH1kygpYYYkL1rse9wj-6" value="определить родителя resize-элемента" style="rounded=0;whiteSpace=wrap;html=1;" vertex="1" parent="1">
          <mxGeometry x="90" y="150" width="120" height="60" as="geometry" />
        </mxCell>
        <mxCell id="EAH1kygpYYYkL1rse9wj-7" value="привязать событие mosemove и изменять положение ползунка по горизонтали или вертикали&lt;br&gt;" style="rounded=0;whiteSpace=wrap;html=1;" vertex="1" parent="1">
          <mxGeometry x="250" y="150" width="180" height="60" as="geometry" />
        </mxCell>
        <mxCell id="EAH1kygpYYYkL1rse9wj-8" value="изменить ширину/высоту всех строк/колонок" style="rounded=0;whiteSpace=wrap;html=1;" vertex="1" parent="1">
          <mxGeometry x="460" y="150" width="120" height="60" as="geometry" />
        </mxCell>
        <mxCell id="EAH1kygpYYYkL1rse9wj-9" value="высоту/ширину ресайзера&amp;nbsp; на размер всей видимой таблицы" style="rounded=0;whiteSpace=wrap;html=1;" vertex="1" parent="1">
          <mxGeometry x="620" y="150" width="120" height="60" as="geometry" />
        </mxCell>
        <mxCell id="EAH1kygpYYYkL1rse9wj-10" value="ресайзер не может двигаться левее/выше своего родителя" style="rounded=0;whiteSpace=wrap;html=1;" vertex="1" parent="1">
          <mxGeometry x="100" y="230" width="120" height="60" as="geometry" />
        </mxCell>
      </root>
    </mxGraphModel>
  </diagram>
</mxfile>
